<mxfile host="app.diagrams.net" modified="2024-01-24T08:57:55.872Z" agent="Mozilla/5.0 (Windows NT 10.0; Win64; x64) AppleWebKit/537.36 (KHTML, like Gecko) Chrome/120.0.0.0 Safari/537.36" etag="Fq8QUIO4GWRgw21JLlYo" version="22.1.21" type="github">
  <diagram name="Page-1" id="xfIYZY3eefDTXILNI-Lq">
    <mxGraphModel dx="1434" dy="746" grid="1" gridSize="10" guides="1" tooltips="1" connect="1" arrows="1" fold="1" page="1" pageScale="1" pageWidth="827" pageHeight="1169" math="0" shadow="0">
      <root>
        <mxCell id="0" />
        <mxCell id="1" parent="0" />
        <mxCell id="XvacxVE_5PmG03Pm2XYH-1" value="" style="rounded=0;whiteSpace=wrap;html=1;" vertex="1" parent="1">
          <mxGeometry x="270" y="170" width="340" height="450" as="geometry" />
        </mxCell>
        <mxCell id="XvacxVE_5PmG03Pm2XYH-2" value="" style="rounded=1;whiteSpace=wrap;html=1;" vertex="1" parent="1">
          <mxGeometry x="305" y="195" width="260" height="400" as="geometry" />
        </mxCell>
        <mxCell id="XvacxVE_5PmG03Pm2XYH-3" value="" style="rounded=1;whiteSpace=wrap;html=1;" vertex="1" parent="1">
          <mxGeometry x="325" y="210" width="220" height="320" as="geometry" />
        </mxCell>
        <mxCell id="XvacxVE_5PmG03Pm2XYH-4" value="Електронно доказателство за доставка" style="rounded=0;whiteSpace=wrap;html=1;" vertex="1" parent="1">
          <mxGeometry x="355" y="230" width="160" height="40" as="geometry" />
        </mxCell>
        <mxCell id="XvacxVE_5PmG03Pm2XYH-5" value="John Cavanaugh" style="rounded=1;whiteSpace=wrap;html=1;" vertex="1" parent="1">
          <mxGeometry x="340" y="420" width="190" height="30" as="geometry" />
        </mxCell>
        <mxCell id="XvacxVE_5PmG03Pm2XYH-6" value="Доставка №38310987&lt;br&gt;Адрес: град.&amp;nbsp;Lorem ipsum&amp;nbsp;&lt;br&gt;ул.&amp;nbsp;Sed ut perspiciatis № 22&lt;br&gt;Дата/час:&lt;br style=&quot;border-color: var(--border-color);&quot;&gt;24-01-2025г. 09:30:ч." style="rounded=1;whiteSpace=wrap;html=1;" vertex="1" parent="1">
          <mxGeometry x="340" y="300" width="190" height="110" as="geometry" />
        </mxCell>
        <mxCell id="XvacxVE_5PmG03Pm2XYH-7" value="" style="ellipse;whiteSpace=wrap;html=1;aspect=fixed;" vertex="1" parent="1">
          <mxGeometry x="415" y="540" width="40" height="40" as="geometry" />
        </mxCell>
        <mxCell id="XvacxVE_5PmG03Pm2XYH-8" value="" style="rounded=0;whiteSpace=wrap;html=1;" vertex="1" parent="1">
          <mxGeometry x="340" y="455" width="190" height="50" as="geometry" />
        </mxCell>
        <mxCell id="XvacxVE_5PmG03Pm2XYH-12" value="подпис" style="text;html=1;strokeColor=none;fillColor=none;align=center;verticalAlign=middle;whiteSpace=wrap;rounded=0;" vertex="1" parent="1">
          <mxGeometry x="455" y="480" width="60" height="30" as="geometry" />
        </mxCell>
        <mxCell id="XvacxVE_5PmG03Pm2XYH-14" value="" style="verticalLabelPosition=bottom;html=1;verticalAlign=top;align=center;shape=mxgraph.floorplan.doorAccordion;dx=0.6;" vertex="1" parent="1">
          <mxGeometry x="440" y="465" width="120" height="15" as="geometry" />
        </mxCell>
      </root>
    </mxGraphModel>
  </diagram>
</mxfile>
